<!-- Meta logo SVG -->
<svg xmlns="http://www.w3.org/2000/svg" viewBox="0 0 120 70" width="60" height="35">
  <path d="M96.8,18.4c-4.3-6.5-10.1-9.8-17.5-9.8c-6.8,0-12.8,3.5-18,10.5c-3.6,4.8-7,10.3-10.3,16.4
  c-3.3-6.1-6.7-11.6-10.3-16.4c-5.2-7-11.2-10.5-18-10.5c-7.4,0-13.3,3.3-17.5,9.8c-3.9,5.8-5.8,12.8-5.8,21
  c0,7.9,1.8,14.7,5.4,20.4c4.4,6.9,10.5,10.4,18.2,10.4c6.7,0,12.7-3.5,17.8-10.6c3.4-4.8,6.8-10.3,10.2-16.5
  c3.4,6.2,6.8,11.7,10.2,16.5c5.1,7.1,11.1,10.6,17.8,10.6c7.7,0,13.8-3.5,18.2-10.4c3.6-5.7,5.4-12.5,5.4-20.4
  C102.6,31.2,100.7,24.2,96.8,18.4z M36.5,54.7c-3.7,5-7.6,7.4-11.7,7.4c-4.4,0-7.9-2.1-10.6-6.3c-2.3-3.6-3.5-8.3-3.5-14.1
  c0-6.2,1.2-11.1,3.5-14.7c2.5-4,6-6,10.6-6c4.1,0,8,2.4,11.7,7.4c2.8,3.9,5.6,8.8,8.4,14.7C42.1,45.9,39.3,50.8,36.5,54.7z
   M105.7,41.7c0,5.8-1.2,10.5-3.5,14.1c-2.7,4.2-6.2,6.3-10.6,6.3c-4.1,0-8-2.4-11.7-7.4c-2.8-3.9-5.6-8.8-8.4-14.7
  c2.8-5.9,5.6-10.8,8.4-14.7c3.7-5,7.6-7.4,11.7-7.4c4.6,0,8.1,2,10.6,6C104.5,30.6,105.7,35.5,105.7,41.7z"
  fill="#1877F2"/>
</svg>